<?xml version="1.0" standalone="no"?>
<!DOCTYPE svg PUBLIC "-//W3C//DTD SVG 20010904//EN"
 "http://www.w3.org/TR/2001/REC-SVG-20010904/DTD/svg10.dtd">
<svg version="1.0" xmlns="http://www.w3.org/2000/svg"
 width="300.000000pt" height="300.000000pt" viewBox="0 0 300.000000 300.000000"
 preserveAspectRatio="xMidYMid meet">
<metadata>
Created by potrace 1.10, written by Peter Selinger 2001-2011
</metadata>
<g transform="translate(0.000000,300.000000) scale(0.050000,-0.050000)"
fill="#fff" stroke="none">
<path d="M3594 5642 c-249 -82 -432 -280 -471 -509 l-14 -83 -343 -5 -343 -6
-11 56 c-6 30 -21 118 -34 195 -38 229 13 210 -555 210 -521 0 -543 -4 -543
-92 0 -80 35 -87 481 -93 l428 -5 15 -90 c8 -49 20 -110 26 -134 10 -44 7 -45
-233 -50 -197 -5 -247 -12 -263 -38 -16 -25 95 -320 473 -1265 l493 -1233 0
-320 0 -320 -316 0 c-334 0 -364 -8 -364 -93 0 -82 45 -87 778 -87 l701 0 32
49 c74 112 27 131 -332 131 l-319 0 0 335 0 334 355 894 c350 882 356 894 405
880 647 -173 1113 660 648 1157 -173 185 -459 260 -694 182z m402 -193 c496
-207 342 -969 -196 -972 -156 0 -152 -22 -49 233 133 334 136 330 -205 330
-287 0 -293 7 -186 193 122 214 407 311 636 216z m-1694 -799 c51 -287 54
-270 -59 -270 l-96 0 -86 215 c-47 118 -90 227 -96 241 -8 20 25 24 146 20
l156 -6 35 -200z m1217 -25 l-96 -235 -452 -5 -451 -6 -1 56 c0 30 -16 138
-36 240 l-37 185 585 0 584 0 -96 -235z m-179 -435 c0 -5 -120 -313 -267 -685
-147 -371 -272 -688 -278 -705 -8 -24 -14 -21 -25 10 -19 49 -537 1354 -547
1375 -3 8 246 15 555 15 309 0 562 -4 562 -10z"/>
<path d="M3883 5373 c-26 -31 -83 -163 -83 -192 0 -41 95 -85 136 -63 35 18
104 153 104 201 0 64 -116 104 -157 54z"/>
<path d="M3544 5336 c-70 -70 65 -274 159 -239 66 24 69 93 8 185 -53 81 -119
102 -167 54z"/>
<path d="M4059 5122 c-118 -24 -160 -93 -95 -158 65 -65 276 -9 276 73 0 27
-73 104 -95 101 -8 -2 -47 -9 -86 -16z"/>
<path d="M3857 4850 c-49 -106 123 -273 204 -199 54 49 49 88 -22 174 -75 90
-148 101 -182 25z"/>
<path d="M1659 1410 c-1 -5 -2 -179 -2 -385 l-1 -375 257 1 c346 2 427 44 427
220 0 55 -14 86 -59 128 l-58 55 42 42 c104 104 22 273 -148 305 -94 19 -456
25 -458 9z m444 -163 c89 -80 19 -147 -154 -147 l-129 0 0 90 0 90 123 0 c87
0 135 -10 160 -33z m-24 -280 c197 -39 101 -187 -121 -187 l-138 0 0 100 0
100 98 0 c53 0 126 -6 161 -13z"/>
<path d="M2616 1390 c-102 -58 -123 -155 -56 -265 22 -36 31 -65 21 -65 -10 0
-46 -28 -79 -62 -211 -210 110 -465 400 -317 l80 41 38 -46 38 -46 56 56 56
56 -48 36 c-48 37 -48 37 -14 122 37 92 30 108 -50 127 -45 11 -55 4 -70 -46
l-18 -58 -78 66 -77 66 61 36 c242 143 -15 438 -260 299z m211 -120 c26 -68
-66 -152 -119 -109 -29 25 -38 102 -15 126 26 25 123 13 134 -17z m-28 -379
l86 -88 -83 -22 c-149 -41 -259 63 -171 161 50 55 70 49 168 -51z"/>
<path d="M3449 1383 c-237 -110 -300 -415 -127 -612 127 -145 390 -174 560
-62 l85 57 -65 58 c-66 59 -66 59 -109 20 -149 -137 -383 -23 -383 186 0 209
235 325 381 189 41 -38 42 -38 109 18 l68 57 -87 58 c-113 75 -308 89 -432 31z"/>
</g>
</svg>
